<svg xmlns="http://www.w3.org/2000/svg" id="svg8" width="1176.658" height="1334.459" version="1.1" viewBox="0 0 311.324 353.076"><g id="layer1" transform="translate(-501.466 -830.845)"><g id="g1777"><path id="polygon9" d="M404.321 470.819 255.778 512l-148.134-41.123L74.633 100.62h362.734z" style="fill:#e44d26" transform="translate(437.411 744.486)scale(.85827)"/><path id="polygon11" d="M404.27 130.894H256v349.629l120.03-33.277z" style="fill:#f16529" transform="translate(437.411 744.486)scale(.85827)"/></g><g id="g1773" transform="translate(.135 3.788)"><path id="polygon15" d="M255.843 176.305H142.132l1.087 12.183 11.161 125.139H256v-45.41h-60.09l-4.15-46.501H256v-45.411z" style="fill:#ebebeb" transform="translate(437.411 744.486)scale(.85827)"/><path id="polygon17" d="m255.791 433.457.209-.058v-47.246l-.199.053-50.574-13.656-3.233-36.217h-45.585l6.362 71.301z" style="fill:#ebebeb" transform="translate(437.411 744.486)scale(.85827)"/><path id="polygon31" d="m349.62 399.962 10.671-119.551 1.108-12.194H255.843v45.41h55.918l-5.271 58.894-50.647 13.67v47.244l93.094-25.801z" style="fill:#fff" transform="translate(437.411 744.486)scale(.85827)"/><path id="polygon33" d="m365.531 221.716.911-10.207 2.069-23.021 1.086-12.183H255.843v45.411h109.542z" style="fill:#fff" transform="translate(437.411 744.486)scale(.85827)"/></g></g></svg>